<svg width="12" height="12" viewBox="0 0 12 12" fill="none" xmlns="http://www.w3.org/2000/svg">
<path d="M10.5714 10.7413H6.43242M1 11L3.87104 9.89575C4.05467 9.82512 4.14649 9.78981 4.23239 9.7437C4.3087 9.70274 4.38144 9.65547 4.44986 9.60237C4.52688 9.5426 4.59645 9.47304 4.73557 9.33392L10.5714 3.4981C11.1429 2.92662 11.1429 2.00008 10.5714 1.42861C9.99992 0.857132 9.07338 0.857131 8.50191 1.4286L2.66608 7.26442C2.52696 7.40355 2.4574 7.47311 2.39762 7.55014C2.34453 7.61856 2.29726 7.6913 2.2563 7.7676C2.21019 7.85351 2.17487 7.94532 2.10424 8.12896L1 11ZM1 11L2.06481 8.23152C2.14101 8.03341 2.17911 7.93435 2.24446 7.88898C2.30156 7.84932 2.37223 7.83433 2.44052 7.84737C2.51866 7.86229 2.5937 7.93734 2.74379 8.08743L3.91258 9.25622C4.06267 9.40631 4.13772 9.48135 4.15264 9.55949C4.16568 9.62778 4.15068 9.69845 4.11103 9.75556C4.06566 9.8209 3.9666 9.859 3.76849 9.9352L1 11Z" stroke="#1E1E1E" stroke-width="1.5" stroke-linecap="round" stroke-linejoin="round"/>
</svg>
