<svg width="19" height="19" viewBox="0 0 19 19" fill="none" xmlns="http://www.w3.org/2000/svg">
<path d="M1.5 6.87029C1.5 6.57529 1.5 6.42778 1.51169 6.30355C1.62448 5.10528 2.52501 4.15735 3.66337 4.03863C3.7814 4.02632 3.92909 4.02632 4.22447 4.02632C4.33828 4.02632 4.39519 4.02632 4.44351 4.02324C5.06049 3.9839 5.60076 3.574 5.83132 2.97031C5.84937 2.92304 5.86625 2.86974 5.9 2.76316C5.93375 2.65657 5.95063 2.60328 5.96868 2.556C6.19924 1.95231 6.73951 1.54241 7.35649 1.50308C7.40481 1.5 7.45818 1.5 7.56491 1.5H11.4351C11.5418 1.5 11.5952 1.5 11.6435 1.50308C12.2605 1.54241 12.8008 1.95231 13.0313 2.556C13.0494 2.60328 13.0662 2.65657 13.1 2.76316C13.1338 2.86974 13.1506 2.92304 13.1687 2.97031C13.3992 3.574 13.9395 3.9839 14.5565 4.02324C14.6048 4.02632 14.6617 4.02632 14.7755 4.02632C15.0709 4.02632 15.2186 4.02632 15.3366 4.03863C16.475 4.15735 17.3755 5.10528 17.4883 6.30355C17.5 6.42778 17.5 6.57529 17.5 6.87029V13.4579C17.5 14.8728 17.5 15.5802 17.2384 16.1206C17.0083 16.596 16.6412 16.9824 16.1896 17.2246C15.6762 17.5 15.0041 17.5 13.66 17.5H5.34C3.99587 17.5 3.32381 17.5 2.81042 17.2246C2.35883 16.9824 1.99168 16.596 1.76158 16.1206C1.5 15.5802 1.5 14.8728 1.5 13.4579V6.87029Z" stroke="white" stroke-width="1.5" stroke-linecap="round" stroke-linejoin="round"/>
<path d="M9.5 13.7105C11.2673 13.7105 12.7 12.2024 12.7 10.3421C12.7 8.48178 11.2673 6.97368 9.5 6.97368C7.73269 6.97368 6.3 8.48178 6.3 10.3421C6.3 12.2024 7.73269 13.7105 9.5 13.7105Z" stroke="white" stroke-width="1.5" stroke-linecap="round" stroke-linejoin="round"/>
</svg>
