<svg width="24" height="24" viewBox="0 0 24 24" fill="none" xmlns="http://www.w3.org/2000/svg">
<path d="M12 10.4146C13.1046 10.4146 14 11.2664 14 12.3171C14 13.3678 13.1046 14.2195 12 14.2195C10.8954 14.2195 10 13.3678 10 12.3171C10 11.2664 10.8954 10.4146 12 10.4146Z" fill="#1E1E1E"/>
<path d="M12 18.1951C13.1046 18.1951 14 19.0469 14 20.0976C14 21.1482 13.1046 22 12 22C10.8954 22 10 21.1482 10 20.0976C10 19.0469 10.8954 18.1951 12 18.1951Z" fill="#1E1E1E"/>
<path d="M12 2C13.1046 2 14 2.85175 14 3.90244C14 4.95313 13.1046 5.80488 12 5.80488C10.8954 5.80488 10 4.95313 10 3.90244C10 2.85175 10.8954 2 12 2Z" fill="#1E1E1E"/>
</svg>
