<svg version="1.0" xmlns="http://www.w3.org/2000/svg"
 width="512" height="512" viewBox="0 0 512 512">

<g transform="translate(0.000000,512.000000) scale(0.100000,-0.100000)"
fill="#000000" stroke="none">
<path d="M1310 4263 c-540 -60 -968 -457 -1077 -1001 -26 -129 -26 -747 0
-875 102 -504 490 -896 973 -982 49 -9 100 -19 114 -24 14 -4 210 -120 435
-258 480 -293 451 -276 479 -269 48 12 48 37 -5 280 -27 125 -49 231 -49 236
0 5 357 11 843 13 815 3 845 4 927 24 456 113 805 452 916 890 37 146 47 302
41 618 -5 232 -9 297 -27 380 -52 244 -175 463 -357 636 -165 157 -342 252
-583 312 -84 21 -98 21 -1340 23 -690 0 -1271 -1 -1290 -3z m2505 -124 c452
-55 811 -372 937 -826 20 -73 22 -105 26 -459 3 -375 3 -383 -21 -490 -100
-443 -455 -777 -902 -849 -74 -12 -244 -15 -958 -15 l-869 0 7 -37 c3 -21 25
-123 49 -228 23 -104 42 -191 41 -193 -2 -3 -640 387 -699 427 -32 23 -62 32
-125 41 -454 62 -815 382 -932 826 -23 87 -24 100 -24 494 1 387 2 409 23 483
72 259 213 468 416 619 142 106 339 185 511 207 107 13 2411 13 2520 0z"/>
</g>
<g transform="translate(138,350) scale(0.03, -0.03)"
fill="#000000" stroke="none">
<path d="M5770 7629 c-532 -58 -825 -227 -1053 -607 -137 -228 -205 -459 -248
-847 -10 -92 -5 -357 7 -411 4 -16 0 -23 -19 -28 -110 -27 -980 -710 -2189
-1718 -98 -81 -183 -148 -189 -148 -6 0 -150 43 -321 95 -171 52 -338 99 -372
105 -301 49 -611 -81 -892 -372 -191 -198 -301 -405 -360 -679 -15 -66 -19
-125 -18 -274 0 -178 2 -196 27 -278 69 -222 182 -379 337 -465 46 -25 374
-143 642 -232 38 -12 68 -27 68 -33 0 -6 -23 -130 -51 -276 -48 -251 -51 -273
-47 -386 4 -100 10 -135 37 -214 57 -170 156 -308 316 -438 190 -156 415 -233
679 -233 321 0 478 59 672 254 124 125 209 251 309 459 75 156 76 159 185 586
96 373 110 439 110 510 l0 81 41 0 c22 0 64 10 92 22 135 57 420 242 749 485
278 206 1439 1064 1470 1086 l26 19 134 -52 133 -52 454 -38 c427 -35 457 -37
525 -23 171 35 358 142 569 327 31 28 57 55 57 60 0 4 29 40 65 78 234 248
351 507 376 832 31 415 -79 714 -374 1009 -120 121 -171 146 -472 237 -132 40
-244 76 -248 80 -5 4 7 131 27 282 38 288 43 395 25 494 -26 141 -108 286
-216 381 -36 32 -89 81 -118 109 -93 90 -290 176 -478 208 -142 25 -278 26
-467 5z m394 -405 c273 -47 463 -207 499 -420 10 -58 6 -87 -53 -416 -55 -308
-108 -714 -94 -727 2 -2 94 15 205 38 l200 43 172 -42 172 -43 105 -75 c155
-110 234 -221 292 -402 32 -104 32 -330 -1 -464 -26 -107 -93 -253 -158 -345
-137 -191 -362 -374 -529 -430 l-60 -20 -385 35 -384 35 -204 70 c-112 39
-211 69 -220 66 -9 -2 -336 -235 -726 -519 -488 -354 -897 -661 -1310 -983
-330 -257 -621 -485 -646 -506 l-46 -39 -6 -117 c-12 -249 -125 -650 -257
-913 -131 -261 -298 -422 -480 -461 -83 -18 -240 -6 -335 24 -252 82 -435 295
-435 506 0 32 18 141 41 242 22 101 57 293 78 427 l37 242 -320 105 c-177 57
-382 122 -457 143 -75 22 -156 51 -179 65 l-43 26 -64 208 -63 208 11 88 c29
234 115 406 283 572 145 144 307 231 451 242 57 5 91 -4 481 -126 231 -72 425
-131 432 -131 6 0 138 109 294 242 708 605 1629 1393 2007 1716 l414 354 -7
113 c-4 62 -7 151 -7 196 1 168 50 453 106 609 118 331 395 521 816 560 68 6
126 13 128 16 10 10 163 3 245 -12z"/>
</g>
</svg>
