<svg width="16" height="20" viewBox="0 0 16 20" fill="none" xmlns="http://www.w3.org/2000/svg">
<path d="M11.5 2.8C12.3137 2.8 12.7206 2.8 13.0544 2.892C13.9603 3.14166 14.6678 3.86944 14.9106 4.80119C15 5.14454 15 5.56303 15 6.4V14.68C15 16.1921 15 16.9482 14.7139 17.5258C14.4622 18.0338 14.0607 18.4469 13.5667 18.7057C13.0052 19 12.2701 19 10.8 19H5.2C3.72986 19 2.99479 19 2.43327 18.7057C1.93935 18.4469 1.53778 18.0338 1.28611 17.5258C1 16.9482 1 16.1921 1 14.68V6.4C1 5.56303 1 5.14454 1.08944 4.80119C1.33217 3.86944 2.03973 3.14166 2.9456 2.892C3.27941 2.8 3.68627 2.8 4.5 2.8M5.375 11.8H10.625M5.9 4.6H10.1C10.59 4.6 10.8351 4.6 11.0222 4.50191C11.1869 4.41562 11.3207 4.27794 11.4046 4.10859C11.5 3.91607 11.5 3.66405 11.5 3.16V2.44C11.5 1.93595 11.5 1.68393 11.4046 1.49141C11.3207 1.32206 11.1869 1.18438 11.0222 1.09809C10.8351 1 10.59 1 10.1 1H5.9C5.40995 1 5.16493 1 4.97776 1.09809C4.81312 1.18438 4.67926 1.32206 4.59537 1.49141C4.5 1.68393 4.5 1.93595 4.5 2.44V3.16C4.5 3.66405 4.5 3.91607 4.59537 4.10859C4.67926 4.27794 4.81312 4.41562 4.97776 4.50191C5.16493 4.6 5.40995 4.6 5.9 4.6Z" stroke="#AEAEAE" stroke-width="2" stroke-linecap="round" stroke-linejoin="round"/>
</svg>
