<svg width="24" height="24" viewBox="0 0 24 24" fill="none" xmlns="http://www.w3.org/2000/svg">
<path d="M9.30407 14.5C9.30407 14.5 10.6166 16 12.8041 16C14.9916 16 16.3041 14.5 16.3041 14.5M15.5541 9.5H15.5641M10.0541 9.5H10.0641M12.8041 20.5C17.4985 20.5 21.3041 16.6944 21.3041 12C21.3041 7.30558 17.4985 3.5 12.8041 3.5C8.10965 3.5 4.30407 7.30558 4.30407 12C4.30407 12.95 4.45992 13.8636 4.74744 14.7166C4.85564 15.0376 4.90974 15.1981 4.9195 15.3214C4.92913 15.4432 4.92185 15.5286 4.89172 15.6469C4.86122 15.7668 4.79386 15.8915 4.65916 16.1408L3.0235 19.1684C2.79019 19.6002 2.67354 19.8161 2.69965 19.9828C2.72239 20.1279 2.80782 20.2557 2.93324 20.3322C3.07725 20.4201 3.32137 20.3948 3.80961 20.3444L8.93063 19.815C9.08571 19.799 9.16325 19.791 9.23393 19.7937C9.30344 19.7963 9.35251 19.8029 9.4203 19.8185C9.48922 19.8344 9.57589 19.8678 9.74922 19.9345C10.6973 20.2998 11.7273 20.5 12.8041 20.5ZM16.0541 9.5C16.0541 9.77614 15.8302 10 15.5541 10C15.2779 10 15.0541 9.77614 15.0541 9.5C15.0541 9.22386 15.2779 9 15.5541 9C15.8302 9 16.0541 9.22386 16.0541 9.5ZM10.5541 9.5C10.5541 9.77614 10.3302 10 10.0541 10C9.77793 10 9.55407 9.77614 9.55407 9.5C9.55407 9.22386 9.77793 9 10.0541 9C10.3302 9 10.5541 9.22386 10.5541 9.5Z" stroke="#AEAEAE" stroke-width="2" stroke-linecap="round" stroke-linejoin="round"/>
</svg>
