<svg width="18" height="18" viewBox="0 0 18 18" fill="none" xmlns="http://www.w3.org/2000/svg">
<path d="M11.8448 7.34856C12.1442 6.81635 12.3939 6.33612 12.5478 5.9706C13.2954 4.19571 12.5562 2.15411 10.7491 1.32131C8.94205 0.488521 7.12748 1.35205 6.3311 3.01935C4.80821 1.97382 2.77672 2.12737 1.65642 3.75896C0.536114 5.39055 0.887716 7.52207 2.42213 8.68518C3.11852 9.21306 4.4958 9.991 5.79248 10.6833M12.4466 8.81007C12.1087 6.99335 10.5637 5.66471 8.61842 6.02583C6.67313 6.38695 5.41532 8.14291 5.6783 10.0509C5.88959 11.5839 7.05583 15.1805 7.50617 16.5353C7.56762 16.7202 7.59835 16.8126 7.65918 16.8771C7.71218 16.9332 7.78265 16.9739 7.85775 16.9918C7.94396 17.0123 8.03933 16.9927 8.23008 16.9535C9.62791 16.6663 13.3242 15.8785 14.7567 15.2951C16.5397 14.5689 17.4599 12.6023 16.7707 10.735C16.0815 8.86768 14.1881 8.19452 12.4466 8.81007Z" stroke="#AEAEAE" stroke-width="2" stroke-linecap="round" stroke-linejoin="round"/>
</svg>
