<svg version="1.0" xmlns="http://www.w3.org/2000/svg"
 width="512.000000pt" height="512.000000pt" viewBox="0 0 512.000000 512.000000"
 preserveAspectRatio="xMidYMid meet">

<g transform="translate(0.000000,512.000000) scale(0.100000,-0.100000)"
fill="#000000" stroke="none">
<path d="M1310 4263 c-540 -60 -968 -457 -1077 -1001 -26 -129 -26 -747 0
-875 102 -504 490 -896 973 -982 49 -9 100 -19 114 -24 14 -4 210 -120 435
-258 480 -293 451 -276 479 -269 48 12 48 37 -5 280 -27 125 -49 231 -49 236
0 5 357 11 843 13 815 3 845 4 927 24 456 113 805 452 916 890 37 146 47 302
41 618 -5 232 -9 297 -27 380 -52 244 -175 463 -357 636 -165 157 -342 252
-583 312 -84 21 -98 21 -1340 23 -690 0 -1271 -1 -1290 -3z m2505 -124 c452
-55 811 -372 937 -826 20 -73 22 -105 26 -459 3 -375 3 -383 -21 -490 -100
-443 -455 -777 -902 -849 -74 -12 -244 -15 -958 -15 l-869 0 7 -37 c3 -21 25
-123 49 -228 23 -104 42 -191 41 -193 -2 -3 -640 387 -699 427 -32 23 -62 32
-125 41 -454 62 -815 382 -932 826 -23 87 -24 100 -24 494 1 387 2 409 23 483
72 259 213 468 416 619 142 106 339 185 511 207 107 13 2411 13 2520 0z"/>
<path d="M3239 3321 c-36 -37 -38 -79 -5 -118 l24 -28 227 -5 226 -5 -231
-315 c-272 -371 -270 -367 -270 -402 0 -40 10 -57 43 -74 25 -13 80 -16 350
-16 l321 0 28 31 c35 39 35 71 3 110 l-26 30 -219 3 c-120 2 -221 6 -225 10
-4 3 91 138 211 300 120 161 233 315 251 342 50 72 42 125 -22 152 -27 11
-100 14 -345 14 l-312 0 -29 -29z"/>
<path d="M2119 3271 c-36 -36 -37 -70 -5 -108 l24 -28 196 -3 c108 -2 196 -5
196 -8 0 -3 -99 -141 -220 -307 -235 -323 -242 -336 -196 -382 33 -33 75 -37
369 -33 l259 3 24 28 c36 43 31 83 -19 129 -1 1 -93 4 -204 7 l-202 6 220 299
c120 164 222 309 225 322 11 42 -4 74 -41 90 -27 11 -94 14 -315 14 l-282 0
-29 -29z"/>
<path d="M1162 3167 c-25 -27 -28 -65 -8 -93 12 -16 34 -20 154 -29 l141 -10
-154 -210 c-166 -227 -175 -246 -130 -290 24 -25 24 -25 238 -25 202 0 216 1
241 21 33 26 36 77 5 105 -18 16 -42 20 -156 24 l-134 5 155 212 c116 157 156
218 156 240 -1 67 -22 73 -273 73 -210 0 -214 0 -235 -23z"/>
</g>
</svg>
