<svg width="24" height="24" viewBox="0 0 24 24" fill="none" xmlns="http://www.w3.org/2000/svg">
<path d="M14.8448 10.3486C15.1442 9.81635 15.3939 9.33612 15.5478 8.9706C16.2954 7.19571 15.5562 5.15411 13.7491 4.32131C11.9421 3.48852 10.1275 4.35205 9.3311 6.01935C7.80821 4.97382 5.77672 5.12737 4.65642 6.75896C3.53611 8.39055 3.88772 10.5221 5.42213 11.6852C6.11852 12.2131 7.4958 12.991 8.79248 13.6833M15.4466 11.8101C15.1087 9.99335 13.5637 8.66471 11.6184 9.02583C9.67313 9.38695 8.41532 11.1429 8.6783 13.0509C8.88959 14.5839 10.0558 18.1805 10.5062 19.5353C10.5676 19.7202 10.5983 19.8126 10.6592 19.8771C10.7122 19.9332 10.7826 19.9739 10.8577 19.9918C10.944 20.0123 11.0393 19.9927 11.2301 19.9535C12.6279 19.6663 16.3242 18.8785 17.7567 18.2951C19.5397 17.5689 20.4599 15.6023 19.7707 13.735C19.0815 11.8677 17.1881 11.1945 15.4466 11.8101Z" stroke="#AEAEAE" stroke-width="2" stroke-linecap="round" stroke-linejoin="round"/>
</svg>
