<svg version="1.0" xmlns="http://www.w3.org/2000/svg"
 width="512" height="512" viewBox="0 0 512 512">
<g transform="translate(0.000000,512.000000) scale(0.100000,-0.100000)"
fill="#000000" stroke="none">
<path d="M1310 4263 c-540 -60 -968 -457 -1077 -1001 -26 -129 -26 -747 0
-875 102 -504 490 -896 973 -982 49 -9 100 -19 114 -24 14 -4 210 -120 435
-258 480 -293 451 -276 479 -269 48 12 48 37 -5 280 -27 125 -49 231 -49 236
0 5 357 11 843 13 815 3 845 4 927 24 456 113 805 452 916 890 37 146 47 302
41 618 -5 232 -9 297 -27 380 -52 244 -175 463 -357 636 -165 157 -342 252
-583 312 -84 21 -98 21 -1340 23 -690 0 -1271 -1 -1290 -3z m2505 -124 c452
-55 811 -372 937 -826 20 -73 22 -105 26 -459 3 -375 3 -383 -21 -490 -100
-443 -455 -777 -902 -849 -74 -12 -244 -15 -958 -15 l-869 0 7 -37 c3 -21 25
-123 49 -228 23 -104 42 -191 41 -193 -2 -3 -640 387 -699 427 -32 23 -62 32
-125 41 -454 62 -815 382 -932 826 -23 87 -24 100 -24 494 1 387 2 409 23 483
72 259 213 468 416 619 142 106 339 185 511 207 107 13 2411 13 2520 0z"/>
</g>
<g transform="translate(90,400) scale(0.1,-0.1)"
fill="#000000" stroke="none">
<path d="M1356 2579 c-127 -34 -153 -294 -35 -355 68 -34 146 14 174 108 26
87 14 155 -36 212 -32 37 -60 46 -103 35z"/>
<path d="M1003 2535 c-138 -60 -58 -355 98 -355 46 0 95 53 104 112 10 64 -16
148 -61 198 -32 35 -45 43 -94 55 -8 2 -29 -2 -47 -10z"/>
<path d="M1604 2306 c-71 -32 -136 -145 -111 -194 30 -62 111 -85 164 -46 16
11 43 42 61 68 37 56 44 120 14 156 -22 27 -86 35 -128 16z"/>
<path d="M766 2198 c-70 -60 3 -193 123 -228 40 -11 57 -5 99 33 54 51 37 122
-43 183 -53 40 -140 46 -179 12z"/>
<path d="M1230 2193 c-90 -15 -134 -53 -155 -134 -12 -45 -25 -64 -80 -117
-100 -95 -128 -181 -87 -261 41 -81 99 -93 304 -63 79 12 193 25 253 30 169
14 225 53 225 154 -1 89 -44 145 -166 215 -47 27 -67 46 -79 74 -39 86 -110
120 -215 102z"/>
<path d="M1993 1832 c-38 -6 -80 -57 -93 -112 -41 -172 102 -329 202 -222 40
43 52 73 52 137 -1 124 -72 211 -161 197z"/>
<path d="M2320 1789 c-123 -49 -171 -256 -78 -334 59 -50 141 -18 191 74 39
71 45 135 19 195 -16 35 -30 50 -56 61 -40 17 -42 17 -76 4z"/>
<path d="M1695 1560 c-71 -28 -64 -124 16 -214 52 -60 118 -67 173 -18 34 31
38 60 16 110 -46 103 -130 153 -205 122z"/>
<path d="M2511 1469 c-18 -6 -55 -32 -82 -59 -42 -42 -49 -55 -49 -88 0 -80
91 -128 169 -88 36 19 99 89 107 120 21 84 -51 142 -145 115z"/>
<path d="M2053 1440 c-31 -10 -66 -45 -106 -110 -13 -20 -47 -48 -82 -68 -108
-60 -155 -123 -155 -207 0 -107 54 -143 235 -157 66 -5 175 -18 241 -29 151
-24 199 -24 243 -1 56 28 76 64 76 135 -1 78 -15 105 -99 187 -52 51 -69 75
-81 116 -18 62 -48 102 -90 119 -43 18 -143 26 -182 15z"/>
</g>
</svg>
