<svg version="1.0" xmlns="http://www.w3.org/2000/svg"
 width="512" height="512" viewBox="0 0 512 512">

<g transform="translate(0,512) scale(0.1,-0.1)"
fill="#000000" stroke="none">
<path d="M1310 4263 c-540 -60 -968 -457 -1077 -1001 -26 -129 -26 -747 0
-875 102 -504 490 -896 973 -982 49 -9 100 -19 114 -24 14 -4 210 -120 435
-258 480 -293 451 -276 479 -269 48 12 48 37 -5 280 -27 125 -49 231 -49 236
0 5 357 11 843 13 815 3 845 4 927 24 456 113 805 452 916 890 37 146 47 302
41 618 -5 232 -9 297 -27 380 -52 244 -175 463 -357 636 -165 157 -342 252
-583 312 -84 21 -98 21 -1340 23 -690 0 -1271 -1 -1290 -3z m2505 -124 c452
-55 811 -372 937 -826 20 -73 22 -105 26 -459 3 -375 3 -383 -21 -490 -100
-443 -455 -777 -902 -849 -74 -12 -244 -15 -958 -15 l-869 0 7 -37 c3 -21 25
-123 49 -228 23 -104 42 -191 41 -193 -2 -3 -640 387 -699 427 -32 23 -62 32
-125 41 -454 62 -815 382 -932 826 -23 87 -24 100 -24 494 1 387 2 409 23 483
72 259 213 468 416 619 142 106 339 185 511 207 107 13 2411 13 2520 0z"/>
</g>
<g transform="translate(120,360) scale(0.08,-0.08)"
fill="#000000" stroke="none">
<path d="M2230 2719 c-19 -6 -388 -177 -820 -382 l-785 -372 -71 -70 c-105
-104 -154 -216 -154 -355 0 -278 221 -501 500 -503 56 0 104 6 140 18 30 10
316 142 635 293 319 151 657 311 750 355 201 95 234 115 295 177 88 90 140
223 140 355 0 221 -158 424 -374 481 -58 16 -204 17 -256 3z m-747 -527 c155
-123 277 -379 280 -591 l2 -93 -355 -169 c-195 -94 -380 -177 -410 -186 -168
-49 -377 47 -453 209 -75 158 -47 325 74 453 43 45 76 65 262 154 391 188 542
260 547 260 3 1 27 -16 53 -37z"/>
<path d="M2189 1409 c-266 -39 -463 -144 -499 -266 -7 -24 -10 -102 -8 -209 3
-170 3 -171 31 -208 192 -251 1171 -244 1328 10 17 28 19 51 19 223 0 147 -3
198 -14 220 -53 102 -261 198 -499 230 -90 13 -275 12 -358 0z m228 -103 c2
-1 -60 -38 -138 -82 -126 -71 -140 -81 -137 -104 3 -28 29 -37 112 -39 44 -1
64 8 221 99 96 55 181 100 189 100 31 0 187 -63 225 -91 48 -34 74 -70 65 -92
-17 -45 -167 -106 -325 -132 -123 -20 -384 -20 -509 0 -179 29 -330 95 -330
146 0 76 242 179 470 198 72 7 149 5 157 -3z m-476 -410 c129 -37 242 -50 434
-50 248 1 420 30 547 95 l38 19 0 -80 c0 -73 -2 -83 -25 -106 -32 -32 -98 -60
-215 -91 -80 -21 -125 -26 -286 -30 -252 -7 -408 14 -544 74 -91 40 -100 53
-100 149 l0 82 48 -23 c27 -13 73 -31 103 -39z"/>
</g>
</svg>
