<svg version="1.0" xmlns="http://www.w3.org/2000/svg"
 width="512" height="512" viewBox="0 0 512 512">

<g transform="translate(0,512) scale(0.1,-0.1)"
fill="#000000" stroke="none">
<path d="M1310 4263 c-540 -60 -968 -457 -1077 -1001 -26 -129 -26 -747 0
-875 102 -504 490 -896 973 -982 49 -9 100 -19 114 -24 14 -4 210 -120 435
-258 480 -293 451 -276 479 -269 48 12 48 37 -5 280 -27 125 -49 231 -49 236
0 5 357 11 843 13 815 3 845 4 927 24 456 113 805 452 916 890 37 146 47 302
41 618 -5 232 -9 297 -27 380 -52 244 -175 463 -357 636 -165 157 -342 252
-583 312 -84 21 -98 21 -1340 23 -690 0 -1271 -1 -1290 -3z m2505 -124 c452
-55 811 -372 937 -826 20 -73 22 -105 26 -459 3 -375 3 -383 -21 -490 -100
-443 -455 -777 -902 -849 -74 -12 -244 -15 -958 -15 l-869 0 7 -37 c3 -21 25
-123 49 -228 23 -104 42 -191 41 -193 -2 -3 -640 387 -699 427 -32 23 -62 32
-125 41 -454 62 -815 382 -932 826 -23 87 -24 100 -24 494 1 387 2 409 23 483
72 259 213 468 416 619 142 106 339 185 511 207 107 13 2411 13 2520 0z"/>
</g>
<g transform="translate(160,332) scale(0.04,-0.04)"
fill="#000000" stroke="none">
<path d="M3950 5005 c-351 -71 -617 -377 -656 -755 -7 -64 -8 -66 -53 -96 -92
-61 -207 -239 -218 -338 -5 -40 -2 -48 25 -76 l30 -30 362 0 362 0 30 30 c27
28 30 36 26 79 -8 85 -71 195 -166 290 l-83 84 6 51 c31 227 201 413 409 449
215 37 436 -110 517 -343 20 -59 23 -94 31 -360 13 -393 3 -1605 -13 -1683
l-12 -57 -1203 0 -1204 0 0 58 c0 226 -169 427 -389 461 -58 9 -69 15 -120 64
-97 92 -198 131 -336 130 -141 -1 -250 -48 -349 -148 l-53 -54 -48 15 c-62 18
-175 18 -248 -1 -211 -55 -365 -243 -370 -452 l-2 -72 -43 -7 c-116 -18 -176
-135 -120 -235 36 -65 57 -73 193 -79 l120 -5 161 -560 c89 -308 174 -585 189
-615 67 -132 211 -237 359 -261 l75 -12 -45 -82 c-61 -113 -61 -185 1 -248 35
-34 92 -52 140 -43 60 12 105 64 196 225 l84 150 1055 1 1055 0 39 -78 c21
-42 64 -117 95 -167 45 -73 64 -94 101 -113 104 -53 216 9 228 126 4 44 -1 59
-41 138 -25 48 -44 91 -42 94 3 4 25 10 50 13 108 15 247 121 298 229 15 29
92 283 172 563 81 281 155 540 166 578 l20 67 122 0 c113 0 125 2 158 24 127
87 68 286 -84 286 l-50 0 7 63 c10 106 7 1936 -4 2004 -77 468 -499 785 -930
698z m-2565 -2384 c17 -9 48 -44 70 -76 57 -83 82 -96 180 -93 65 2 87 -1 114
-17 44 -26 71 -78 71 -137 l0 -48 -640 0 -640 0 0 38 c1 53 32 115 76 148 33
25 46 29 105 29 61 0 70 -3 106 -33 92 -79 175 -90 246 -31 28 23 41 45 57 97
38 130 150 184 255 123z m3005 -704 c0 -8 -67 -247 -149 -532 -136 -472 -152
-520 -180 -549 l-31 -31 -1428 -3 c-940 -2 -1439 1 -1462 7 -19 6 -56 23 -81
40 -42 26 -49 36 -77 114 -42 115 -106 337 -197 675 -41 155 -75 284 -75 287
0 3 828 5 1840 5 1532 0 1840 -2 1840 -13z"/>
<path d="M3155 3618 c-43 -25 -54 -57 -34 -101 11 -24 47 -47 74 -47 29 0 68
46 68 80 0 24 -7 40 -27 57 -30 25 -51 28 -81 11z"/>
<path d="M3388 3600 c-24 -24 -29 -36 -24 -58 7 -30 49 -72 71 -72 29 0 64 24
76 51 15 37 -2 82 -37 98 -38 17 -53 14 -86 -19z"/>
<path d="M3639 3601 c-16 -16 -29 -39 -29 -51 0 -12 13 -35 29 -51 16 -16 39
-29 51 -29 28 0 80 52 80 80 0 12 -13 35 -29 51 -16 16 -39 29 -51 29 -12 0
-35 -13 -51 -29z"/>
<path d="M3150 3317 c-78 -39 -21 -170 61 -138 59 22 71 88 25 128 -31 26 -50
28 -86 10z"/>
<path d="M3388 3300 c-24 -25 -29 -36 -23 -58 20 -81 113 -92 147 -17 21 45
-24 105 -78 105 -9 0 -29 -14 -46 -30z"/>
<path d="M3653 3318 c-12 -6 -27 -24 -34 -41 -15 -36 1 -73 44 -97 24 -13 30
-13 54 0 43 24 59 61 44 97 -12 29 -47 54 -74 52 -7 0 -22 -5 -34 -11z"/>
</g>
</svg>
