<svg width="22" height="20" viewBox="0 0 22 20" fill="none" xmlns="http://www.w3.org/2000/svg">
<path d="M8.30407 12.5C8.30407 12.5 9.61657 14 11.8041 14C13.9916 14 15.3041 12.5 15.3041 12.5M14.5541 7.5H14.5641M9.05407 7.5H9.06407M11.8041 18.5C16.4985 18.5 20.3041 14.6944 20.3041 10C20.3041 5.30558 16.4985 1.5 11.8041 1.5C7.10965 1.5 3.30407 5.30558 3.30407 10C3.30407 10.95 3.45992 11.8636 3.74744 12.7166C3.85564 13.0376 3.90974 13.1981 3.9195 13.3214C3.92913 13.4432 3.92185 13.5286 3.89172 13.6469C3.86122 13.7668 3.79386 13.8915 3.65916 14.1408L2.0235 17.1684C1.79019 17.6002 1.67354 17.8161 1.69965 17.9828C1.72239 18.1279 1.80782 18.2557 1.93324 18.3322C2.07725 18.4201 2.32137 18.3948 2.80961 18.3444L7.93063 17.815C8.08571 17.799 8.16325 17.791 8.23393 17.7937C8.30344 17.7963 8.35251 17.8029 8.4203 17.8185C8.48922 17.8344 8.57589 17.8678 8.74922 17.9345C9.69727 18.2998 10.7273 18.5 11.8041 18.5ZM15.0541 7.5C15.0541 7.77614 14.8302 8 14.5541 8C14.2779 8 14.0541 7.77614 14.0541 7.5C14.0541 7.22386 14.2779 7 14.5541 7C14.8302 7 15.0541 7.22386 15.0541 7.5ZM9.55407 7.5C9.55407 7.77614 9.33021 8 9.05407 8C8.77793 8 8.55407 7.77614 8.55407 7.5C8.55407 7.22386 8.77793 7 9.05407 7C9.33021 7 9.55407 7.22386 9.55407 7.5Z" stroke="#AEAEAE" stroke-width="2" stroke-linecap="round" stroke-linejoin="round"/>
</svg>
