<svg width="22" height="22" viewBox="0 0 22 22" fill="none" xmlns="http://www.w3.org/2000/svg">
<path d="M1.5 11C1.5 16.2467 5.75329 20.5 11 20.5C12.2637 20.5 13.4697 20.2533 14.5725 19.8054C14.7836 19.7197 14.8892 19.6768 14.9745 19.6577C15.0579 19.639 15.1197 19.6321 15.2052 19.6321C15.2926 19.6321 15.3879 19.648 15.5783 19.6797L19.3339 20.3056C19.7271 20.3712 19.9238 20.404 20.066 20.343C20.1904 20.2896 20.2896 20.1904 20.343 20.066C20.404 19.9238 20.3712 19.7271 20.3056 19.3339L19.6797 15.5783C19.648 15.3879 19.6321 15.2926 19.6321 15.2052C19.6321 15.1197 19.639 15.0579 19.6577 14.9745C19.6768 14.8892 19.7197 14.7836 19.8054 14.5725C20.2533 13.4697 20.5 12.2637 20.5 11C20.5 5.7533 16.2467 1.5 11 1.5C5.75329 1.5 1.5 5.7533 1.5 11Z" stroke="#AEAEAE" stroke-width="2" stroke-linecap="round" stroke-linejoin="round"/>
</svg>
