<svg width="25" height="25" viewBox="0 0 25 25" fill="none" xmlns="http://www.w3.org/2000/svg">
<path d="M16.2333 20.5H7.99455C7.45605 20.5 7.1868 20.5 7.06212 20.3935C6.95394 20.3011 6.89653 20.1625 6.90769 20.0207C6.92055 19.8572 7.11094 19.6668 7.49172 19.2861L15.0499 11.7279C15.4019 11.3759 15.5779 11.1999 15.7809 11.1339C15.9594 11.0759 16.1517 11.0759 16.3302 11.1339C16.5332 11.1999 16.7092 11.3759 17.0612 11.7279L20.5 15.1667V16.2333M16.2333 20.5C17.7268 20.5 18.4735 20.5 19.044 20.2094C19.5457 19.9537 19.9537 19.5457 20.2094 19.044C20.5 18.4735 20.5 17.7268 20.5 16.2333M16.2333 20.5H8.76667C7.27319 20.5 6.52646 20.5 5.95603 20.2094C5.45426 19.9537 5.04631 19.5457 4.79065 19.044C4.5 18.4735 4.5 17.7268 4.5 16.2333V8.76667C4.5 7.27319 4.5 6.52646 4.79065 5.95603C5.04631 5.45426 5.45426 5.04631 5.95603 4.79065C6.52646 4.5 7.27319 4.5 8.76667 4.5H16.2333C17.7268 4.5 18.4735 4.5 19.044 4.79065C19.5457 5.04631 19.9537 5.45426 20.2094 5.95603C20.5 6.52646 20.5 7.27319 20.5 8.76667V16.2333M11.1667 9.38889C11.1667 10.3707 10.3707 11.1667 9.38889 11.1667C8.40705 11.1667 7.61111 10.3707 7.61111 9.38889C7.61111 8.40705 8.40705 7.61111 9.38889 7.61111C10.3707 7.61111 11.1667 8.40705 11.1667 9.38889Z" stroke="white" stroke-width="1.5" stroke-linecap="round" stroke-linejoin="round"/>
</svg>
