<svg width="239" height="262" viewBox="0 0 239 262" fill="none" xmlns="http://www.w3.org/2000/svg">
<g>
<path d="M58.78 23.04C58.78 23.04 29.86 13.5 22.98 44.39C22.98 44.39 2.83999 59.68 8.48999 81.94C8.48999 81.94 -5.29001 112.17 7.74999 131.25C7.74999 131.25 4.68999 147.79 16.45 156.29C16.45 156.29 32.04 168.09 39.57 170.58C39.57 170.58 55.25 172.99 62.83 176.57C62.83 176.57 47.43 187.27 52.95 196.99C52.95 196.99 40.37 210.85 52.15 224.03C52.15 224.03 40.97 243.7 61.06 250.62C61.06 250.62 64.46 253.45 79.62 254.59C79.62 254.59 85.03 259.26 105.51 256.41C105.51 256.41 108.69 267.61 137.85 257.38C137.85 257.38 148.01 263.1 160.77 252.78C160.77 252.78 170.64 264.31 186.28 243.85C186.28 243.85 195.51 241.35 184.45 224.02C184.45 224.02 197.83 213.08 183.65 196.98C183.65 196.98 186.68 180.54 178.37 177.78L212.84 166.85C212.84 166.85 229.17 155.08 231.91 144.45C234.65 133.83 238.22 117.05 235.26 107.29L233.56 87.74C233.56 87.74 230.35 69.61 216.67 66.76C216.67 66.76 229.09 34.33 196.3 30.55C196.3 30.55 191 -0.890013 153.01 14.11C153.01 14.11 138.62 -8.53001 108.45 9.31999C108.45 9.31999 91.7 -7.32001 58.79 23.02V23.04H58.78Z" fill="aquamarine"/>
<path d="M186.37 99.8596C178.73 113.56 186.37 131.37 186.37 131.37C183.82 153.97 207.38 169.04 213.11 166.99C218.84 164.94 229.66 149.87 229.66 149.87C239.85 132.75 234.74 100.56 234.74 100.56C236.02 71.7896 216.89 67.0596 216.89 67.0596C226.48 34.8296 196.56 30.6996 196.56 30.6996C190.94 1.06958 158.42 10.2696 153.27 14.2596C132.26 -9.03043 108.71 9.46958 108.71 9.46958C85.79 -6.28042 59.05 23.1696 59.05 23.1696C28.49 12.8996 21.49 45.7696 21.49 45.7696C21.49 45.7696 4.30004 59.4696 8.76004 82.0696C8.76004 82.0696 -4.80996 105.36 8.02004 131.38C8.02004 131.38 6.85004 147.13 18.94 158.78C18.94 158.78 20.97 162.58 27.6 167.19C27.6 167.19 47.32 178.3 54.96 146.79C54.96 146.79 65.42 126.59 60.96 106.05" stroke="#A67B5B" stroke-width="5" stroke-miterlimit="10"/>
<path d="M67.82 175.369C67.82 175.369 47.99 177.169 52.95 196.999C52.95 196.999 38.29 210.069 52.15 224.039C52.15 224.039 40.78 240.709 61.06 250.629" stroke="#A67B5B" stroke-width="5" stroke-miterlimit="10"/>
<path d="M170.66 175.369C170.66 175.369 190.49 177.169 185.53 196.999C185.53 196.999 200.19 210.069 186.33 224.039C186.33 224.039 197.7 240.709 177.42 250.629" stroke="#A67B5B" stroke-width="5" stroke-miterlimit="10"/>
<path d="M154.37 182.48C154.37 182.48 170.47 191.4 161.52 203.73C161.52 203.73 171.85 206.28 164.22 214.99C164.22 214.99 171.35 222.85 163.75 227.95C163.75 227.95 173.96 236.45 160.81 243.67C160.81 243.67 165.76 252.28 156.4 255.79C155.79 256.02 155.11 256.23 154.37 256.41C142.3 259.38 132.91 256.41 132.91 256.41C132.91 256.41 126.2 250.89 129.33 243.66C129.33 243.66 123.19 236.44 128.5 229.64C128.5 229.64 121.73 219.44 128.89 214.98C128.89 214.98 120.98 208.39 125.61 201.59C125.61 201.59 121.21 198.62 124.16 190.54" stroke="#A67B5B" stroke-width="4" stroke-miterlimit="10"/>
<path d="M84.05 182.48C84.05 182.48 67.95 191.4 76.9 203.73C76.9 203.73 66.57 206.28 74.2 214.99C74.2 214.99 67.07 222.85 74.67 227.95C74.67 227.95 64.46 236.45 77.61 243.67C77.61 243.67 72.66 252.28 82.02 255.79C82.63 256.02 83.31 256.23 84.05 256.41C96.12 259.38 105.51 256.41 105.51 256.41C105.51 256.41 112.22 250.89 109.09 243.66C109.09 243.66 115.23 236.44 109.92 229.64C109.92 229.64 116.69 219.44 109.53 214.98C109.53 214.98 117.44 208.39 112.81 201.59C112.81 201.59 117.21 198.62 114.26 190.54" stroke="#A67B5B" stroke-width="4" stroke-miterlimit="10"/>
<path d="M91.67 105.329C95.4366 105.329 98.49 102.276 98.49 98.5095C98.49 94.7429 95.4366 91.6895 91.67 91.6895C87.9034 91.6895 84.85 94.7429 84.85 98.5095C84.85 102.276 87.9034 105.329 91.67 105.329Z" fill="#030000"/>
<path d="M93.0799 102.33C94.4109 102.33 95.4899 101.251 95.4899 99.9198C95.4899 98.5888 94.4109 97.5098 93.0799 97.5098C91.7489 97.5098 90.6699 98.5888 90.6699 99.9198C90.6699 101.251 91.7489 102.33 93.0799 102.33Z" fill="white"/>
<path d="M144.67 105.329C148.437 105.329 151.49 102.276 151.49 98.5095C151.49 94.7429 148.437 91.6895 144.67 91.6895C140.903 91.6895 137.85 94.7429 137.85 98.5095C137.85 102.276 140.903 105.329 144.67 105.329Z" fill="#030000"/>
<path d="M143.26 102.33C144.591 102.33 145.67 101.251 145.67 99.9198C145.67 98.5888 144.591 97.5098 143.26 97.5098C141.929 97.5098 140.85 98.5888 140.85 99.9198C140.85 101.251 141.929 102.33 143.26 102.33Z" fill="white"/>
<path d="M99.6 113.85C99.6 113.85 89.53 114.24 91.67 121.69C91.67 121.69 81.48 124.52 86.62 132.74C86.62 132.74 79.04 141.99 90.67 144.05C90.67 144.05 94.2 153.3 110.65 148.68C110.65 148.68 118.36 154.61 132.88 149.98C132.88 149.98 146.4 150.38 145.66 142.93C145.66 142.93 151.41 139.74 148.71 134.86C148.71 134.86 151.8 127.4 146.4 123.42C146.4 123.42 147.46 117.39 139.84 114.99" stroke="#A67B5B" stroke-width="3" stroke-miterlimit="10"/>
<path d="M67.3 156.51C67.3 156.51 76.26 172.98 107.59 171.62C107.59 171.62 127.7 181.24 144.66 169.68C144.66 169.68 160.99 172.82 172.82 156.52" stroke="#A67B5B" stroke-width="3" stroke-miterlimit="10"/>
<path d="M71.29 173.31C84.51 176.94 125.56 187.39 169.01 172.07C169.01 172.07 177.46 173.84 170.47 179.75C161.54 187.3 115.05 197.76 72.06 183.64C71.27 183.38 70.46 183.19 69.64 183.07C67.68 182.77 63.68 181.68 64.14 177.88C64.55 174.52 68.02 172.41 71.28 173.31H71.29Z" fill="#000000"/>
<path d="M111.1 116.619C111.1 116.619 115.61 114.339 122.36 116.129C123.57 116.449 124.6 117.299 125.13 118.439C125.56 119.359 125.92 120.569 125.77 121.909C125.48 124.549 124.36 127.389 121.3 129.589C119.32 131.019 116.56 130.709 114.88 130.309C113.9 130.079 113.01 129.609 112.28 128.909C110.87 127.559 108.58 124.879 108.58 121.689C108.58 117.059 111.09 116.619 111.09 116.619H111.1Z" fill="#030000"/>
</g>
</svg>
