<svg width="20" height="20" viewBox="0 0 20 20" fill="none" xmlns="http://www.w3.org/2000/svg">
    <path d="M1 10C1 14.9706 5.02944 19 10 19C11.4912 19 12.7 17.7912 12.7 16.3V15.85C12.7 15.432 12.7 15.223 12.7231 15.0476C12.8826 13.836 13.836 12.8826 15.0476 12.7231C15.223 12.7 15.432 12.7 15.85 12.7H16.3C17.7912 12.7 19 11.4912 19 10C19 5.02944 14.9706 1 10 1C5.02944 1 1 5.02944 1 10Z" stroke="#1E1E1E" stroke-width="1.5" stroke-linecap="round" stroke-linejoin="round"/>
    <path d="M5.5 10.9C5.99706 10.9 6.4 10.4971 6.4 10C6.4 9.50294 5.99706 9.1 5.5 9.1C5.00294 9.1 4.6 9.50294 4.6 10C4.6 10.4971 5.00294 10.9 5.5 10.9Z" stroke="#1E1E1E" stroke-width="1.5" stroke-linecap="round" stroke-linejoin="round"/>
    <path d="M13.6 7.3C14.0971 7.3 14.5 6.89706 14.5 6.4C14.5 5.90294 14.0971 5.5 13.6 5.5C13.1029 5.5 12.7 5.90294 12.7 6.4C12.7 6.89706 13.1029 7.3 13.6 7.3Z" stroke="#1E1E1E" stroke-width="1.5" stroke-linecap="round" stroke-linejoin="round"/>
    <path d="M8.2 6.4C8.69706 6.4 9.1 5.99706 9.1 5.5C9.1 5.00294 8.69706 4.6 8.2 4.6C7.70294 4.6 7.3 5.00294 7.3 5.5C7.3 5.99706 7.70294 6.4 8.2 6.4Z" stroke="#1E1E1E" stroke-width="1.5" stroke-linecap="round" stroke-linejoin="round"/>
</svg>
    