<svg width="18" height="18" viewBox="0 0 18 18" fill="none" xmlns="http://www.w3.org/2000/svg">
<path d="M1.21444 9.986C1.10377 9.81076 1.04843 9.72314 1.01745 9.58799C0.994183 9.48648 0.994183 9.32638 1.01745 9.22487C1.04843 9.08972 1.10377 9.0021 1.21444 8.82685C2.12902 7.3787 4.85134 3.71777 9 3.71777C13.1487 3.71777 15.871 7.3787 16.7856 8.82685C16.8962 9.0021 16.9516 9.08972 16.9825 9.22487C17.0058 9.32638 17.0058 9.48648 16.9825 9.58799C16.9516 9.72314 16.8962 9.81076 16.7856 9.986C15.871 11.4342 13.1487 15.0951 9 15.0951C4.85134 15.0951 2.12902 11.4342 1.21444 9.986Z" fill="currentColor"/>
<path d="M9 11.8444C10.3465 11.8444 11.438 10.7529 11.438 9.40643C11.438 8.05996 10.3465 6.96843 9 6.96843C7.65353 6.96843 6.56201 8.05996 6.56201 9.40643C6.56201 10.7529 7.65353 11.8444 9 11.8444Z" fill="currentColor"/>
<path d="M9.12672 12.3445C10.7493 12.3445 12.0647 11.0291 12.0647 9.4065C12.0647 7.78389 10.7493 6.46851 9.12672 6.46851C7.50411 6.46851 6.18872 7.78389 6.18872 9.4065C6.18872 11.0291 7.50411 12.3445 9.12672 12.3445Z" fill="currentColor" stroke="white" stroke-linecap="round" stroke-linejoin="round"/>
<path d="M1 2.09253L15.628 16.7205" stroke="currentColor" stroke-width="1.5" stroke-linecap="round" stroke-linejoin="round"/>
<path d="M1.81274 1.27979L16.4407 15.9078" stroke="white" stroke-width="1.5" stroke-linecap="round" stroke-linejoin="round"/>
</svg>
