<svg width="49" height="48" viewBox="0 0 49 48" fill="none" xmlns="http://www.w3.org/2000/svg">
<circle cx="24.4541" cy="23.6377" r="23.6377" fill="#1B66C0"/>
<g clip-path="url(#clip0_4_92)">
<path fill-rule="evenodd" clip-rule="evenodd" d="M28.9404 14.6328V16.8565C28.9404 17.16 28.9296 17.4662 28.9404 17.7697C28.9458 17.955 28.8837 18.0221 28.6948 18.0194C28.1686 18.0114 27.6424 18.014 27.1162 18.0194C26.9381 18.0221 26.7519 18.0463 26.5792 18.0892C26.2392 18.1725 26.0233 18.4008 26.0125 18.7553C25.9936 19.4562 26.0071 20.1599 26.0071 20.8958H28.9593C28.908 21.4302 28.8648 21.9297 28.8135 22.4266C28.7623 22.9261 28.6975 23.4256 28.657 23.9305C28.6381 24.1561 28.5761 24.2609 28.3143 24.2555C27.5426 24.2367 26.7681 24.2501 25.9667 24.2501V33.7681H21.9567C21.9459 33.6392 21.927 33.5022 21.927 33.3652C21.927 30.4406 21.9243 27.5186 21.9324 24.5966C21.9324 24.328 21.8785 24.2313 21.587 24.2448C21.0554 24.2716 20.5211 24.2528 19.9517 24.2528V23.9144C19.9517 23.0577 19.9463 22.201 19.9517 21.3443C19.9517 20.8662 19.8951 20.9119 20.3754 20.9092C20.8072 20.9092 21.2362 20.8958 21.668 20.9119C21.8758 20.9199 21.927 20.8394 21.9297 20.6487C21.9351 19.8591 21.9216 19.0668 21.9675 18.2799C22.0269 17.2916 22.2967 16.3677 23.0523 15.656C23.6136 15.1243 24.3098 14.8235 25.06 14.7671C26.3336 14.6731 27.6127 14.6758 28.9404 14.6382" fill="white"/>
</g>
<defs>
<clipPath id="clip0_4_92">
<rect width="9.00483" height="19.1353" fill="white" transform="translate(19.9517 14.6328)"/>
</clipPath>
</defs>
</svg>
