<svg width="48" height="48" viewBox="0 0 48 48" fill="none" xmlns="http://www.w3.org/2000/svg">
<circle cx="24.3623" cy="23.6377" r="23.6377" fill="#3A3A3A"/>
<g clip-path="url(#clip0_4_93)">
<path d="M27.9731 15.6313C28.6903 14.7585 29.1751 13.585 29.0489 12.3818C28.0034 12.4311 26.7206 13.0574 25.9832 13.9301C25.3165 14.6796 24.7306 15.9025 24.8821 17.0514C26.0589 17.15 27.2357 16.4794 27.9731 15.6263" fill="white"/>
<path d="M29.0338 17.278C27.3267 17.1794 25.8721 18.2248 25.059 18.2248C24.2458 18.2248 22.9933 17.3274 21.6448 17.352C19.8872 17.3767 18.2559 18.348 17.3619 19.8914C15.5285 22.9781 16.877 27.5589 18.6599 30.0785C19.5286 31.3211 20.569 32.6919 21.9478 32.6426C23.2458 32.5933 23.7559 31.8191 25.3368 31.8191C26.9176 31.8191 27.3772 32.6426 28.7509 32.6179C30.1802 32.5933 31.0691 31.3704 31.9378 30.1278C32.9328 28.7078 33.3369 27.3419 33.3672 27.263C33.3419 27.2384 30.6146 26.2177 30.5893 23.1556C30.5641 20.5916 32.7308 19.3737 32.8318 19.2948C31.6096 17.5295 29.6954 17.3274 29.0338 17.278Z" fill="white"/>
</g>
<defs>
<clipPath id="clip0_4_93">
<rect width="16.8841" height="20.2609" fill="white" transform="translate(16.483 12.3818)"/>
</clipPath>
</defs>
</svg>
