<svg width="20" height="19" viewBox="0 0 20 19" fill="none" xmlns="http://www.w3.org/2000/svg">
<path d="M13.4 12.9C13.4 12.9 12.125 11.2 10 11.2C7.875 11.2 6.6 12.9 6.6 12.9M14.25 7.154C13.9142 7.56625 13.4553 7.8 12.975 7.8C12.4948 7.8 12.0485 7.56625 11.7 7.154M8.3 7.154C7.96425 7.56625 7.50525 7.8 7.025 7.8C6.54475 7.8 6.0985 7.56625 5.75 7.154M18.5 9.5C18.5 14.1944 14.6944 18 10 18C5.30558 18 1.5 14.1944 1.5 9.5C1.5 4.80558 5.30558 1 10 1C14.6944 1 18.5 4.80558 18.5 9.5Z" stroke="#AEAEAE" stroke-width="1.5" stroke-linecap="round" stroke-linejoin="round"/>
</svg>
